<?xml version="1.0" standalone="no"?>
<!DOCTYPE svg PUBLIC "-//W3C//DTD SVG 20010904//EN"
 "http://www.w3.org/TR/2001/REC-SVG-20010904/DTD/svg10.dtd">
<svg version="1.0" xmlns="http://www.w3.org/2000/svg"
 width="512.000000pt" height="512.000000pt" viewBox="0 0 512.000000 512.000000"
 preserveAspectRatio="xMidYMid meet">

<g transform="translate(0.000000,512.000000) scale(0.100000,-0.100000)"
fill="#000000" stroke="none">
<path d="M1480 5104 c-213 -56 -400 -241 -454 -449 -55 -213 -3 -437 137 -592
28 -32 346 -366 706 -743 360 -377 669 -701 688 -721 l34 -36 -717 -754 c-394
-415 -731 -772 -747 -794 -84 -113 -134 -285 -122 -420 14 -170 70 -290 190
-411 127 -128 262 -184 445 -184 185 0 326 58 460 189 75 72 1750 1835 1856
1952 128 142 185 346 150 537 -16 92 -67 210 -119 275 -38 49 -1785 1880
-1892 1983 -84 81 -196 145 -296 169 -80 19 -246 18 -319 -1z"/>
</g>
</svg>
