<?xml version="1.0" standalone="no"?>
<!DOCTYPE svg PUBLIC "-//W3C//DTD SVG 20010904//EN"
 "http://www.w3.org/TR/2001/REC-SVG-20010904/DTD/svg10.dtd">
<svg version="1.0" xmlns="http://www.w3.org/2000/svg"
 width="24.000000pt" height="10.000000pt" viewBox="0 0 24.000000 10.000000"
 preserveAspectRatio="xMidYMid meet">

<g transform="translate(0.000000,10.000000) scale(0.100000,-0.100000)"
fill="#000000" stroke="none">
<path d="M78 80 c49 -22 53 -36 15 -50 -67 -24 -70 -29 -20 -29 34 -1 47 3 47
13 0 8 14 17 30 21 17 4 30 10 30 15 0 4 -13 13 -30 19 -16 5 -30 15 -30 20 0
6 -19 11 -42 10 l-43 0 43 -19z"/>
<path d="M161 96 c2 -2 21 -11 42 -19 35 -15 37 -15 37 4 0 16 -7 19 -42 19
-23 0 -39 -2 -37 -4z"/>
<path d="M0 54 c0 -26 3 -27 38 -18 30 9 28 20 -8 33 -28 9 -30 8 -30 -15z"/>
<path d="M190 21 l-45 -16 44 -3 c47 -4 54 -1 49 21 -3 12 -10 12 -48 -2z"/>
</g>
</svg>
