<?xml version="1.0" standalone="no"?>
<!DOCTYPE svg PUBLIC "-//W3C//DTD SVG 20010904//EN"
 "http://www.w3.org/TR/2001/REC-SVG-20010904/DTD/svg10.dtd">
<svg version="1.0" xmlns="http://www.w3.org/2000/svg"
 width="867.000000pt" height="1024.000000pt" viewBox="0 0 867.000000 1024.000000"
 preserveAspectRatio="xMidYMid meet">

<g transform="translate(0.000000,1024.000000) scale(0.100000,-0.100000)"
fill="#000000" stroke="none">
<path d="M0 5120 l0 -5120 4333 0 4332 0 0 1678 c0 922 -1 3226 -2 5120 l-3
3442 -4330 0 -4330 0 0 -5120z m4223 2312 c-6 -14 -4 -14 17 1 35 24 50 21 20
-4 -14 -11 -18 -17 -10 -13 12 6 13 5 3 -8 -7 -8 -10 -18 -6 -22 4 -4 0 -4
-10 0 -13 4 -17 1 -17 -15 0 -12 -6 -21 -15 -21 -8 0 -15 -9 -15 -19 0 -27
-17 -35 -23 -11 -3 11 -1 22 3 25 5 3 12 27 15 53 10 70 13 76 30 62 7 -6 11
-19 8 -28z m154 -67 c0 -8 -4 -12 -9 -9 -5 3 -6 10 -3 15 9 13 12 11 12 -6z
m-72 -75 c4 -11 11 -18 16 -15 5 3 6 -1 3 -9 -5 -13 -9 -12 -25 8 -21 27 -24
36 -10 36 5 0 13 -9 16 -20z m200 10 c-3 -5 -1 -10 6 -10 7 0 10 -3 6 -6 -9
-9 -28 6 -22 17 4 5 8 9 11 9 3 0 2 -4 -1 -10z m-410 -68 c-7 -14 -9 -13 -15
8 -14 43 -11 56 6 32 9 -14 13 -30 9 -40z m192 43 c9 -24 -1 -27 -15 -5 -8 13
-8 20 -2 20 6 0 13 -7 17 -15z m-134 -20 c-3 -9 -8 -14 -10 -11 -3 3 -2 9 2
15 9 16 15 13 8 -4z m49 -15 c3 -3 0 -13 -7 -23 -11 -16 -13 -16 -19 -2 -4 10
-2 14 5 9 8 -4 9 1 4 17 -4 14 -4 20 1 14 5 -5 12 -12 16 -15z m217 -34 c-3
-3 -11 5 -18 17 -13 21 -12 21 5 5 10 -10 16 -20 13 -22z m-31 -31 c-3 -3 -9
2 -12 12 -6 14 -5 15 5 6 7 -7 10 -15 7 -18z m212 -40 c0 -8 6 -12 14 -9 9 3
17 -3 21 -15 3 -11 21 -31 38 -43 18 -12 38 -28 45 -35 7 -7 19 -13 27 -13 11
0 29 -34 26 -52 -1 -5 3 -8 8 -8 12 0 33 -59 25 -71 -3 -5 2 -12 10 -15 9 -3
16 -16 16 -29 0 -24 64 -191 81 -212 8 -8 2 -16 -20 -28 -17 -8 -31 -20 -31
-25 0 -6 -9 -10 -20 -10 -11 0 -20 -4 -20 -9 0 -16 -89 -61 -96 -49 -5 7 -2 8
6 3 8 -5 11 -3 8 6 -3 8 6 19 21 27 14 7 19 10 10 8 -15 -4 -89 55 -89 71 0 5
-9 9 -20 10 -13 1 -18 -2 -14 -9 4 -7 2 -8 -4 -4 -7 4 -12 13 -12 21 0 16 -48
29 -63 17 -7 -6 -37 -13 -67 -17 -30 -4 -64 -13 -76 -20 -12 -8 -39 -16 -60
-20 -37 -6 -38 -5 -20 9 11 9 16 16 11 16 -4 0 4 11 19 25 15 14 34 25 43 25
8 0 44 14 79 30 62 30 109 33 125 7 4 -5 12 -8 19 -5 7 2 -2 17 -22 36 -64 62
-91 82 -101 75 -6 -4 -8 0 -4 10 4 11 2 14 -9 10 -7 -3 -14 -1 -14 5 0 5 -12
15 -27 21 -44 19 -80 53 -87 84 -6 25 -4 27 28 27 24 0 44 -9 72 -35 21 -19
60 -46 87 -60 41 -22 51 -24 65 -13 15 11 15 11 5 -3 -10 -12 -9 -20 3 -38 9
-12 22 -20 30 -17 8 3 13 0 11 -6 -1 -7 6 -14 16 -16 15 -3 16 0 6 25 -16 43
-19 86 -7 101 9 10 8 12 -3 10 -8 -2 -15 7 -17 22 -5 30 -44 79 -80 101 -15 8
-29 26 -30 39 -2 13 -10 34 -19 46 -13 20 -12 23 4 26 24 6 53 -9 53 -27z
m121 -48 c21 -19 25 -37 9 -37 -5 0 -10 7 -10 15 0 8 -7 15 -15 15 -10 0 -15
9 -14 28 0 15 3 21 6 12 3 -8 14 -23 24 -33z m-405 -486 c-4 -5 0 -11 6 -14 7
-2 11 -7 8 -10 -9 -10 -33 10 -26 22 4 6 9 11 12 11 3 0 3 -4 0 -9z m-1401
-101 c3 -6 -4 -10 -17 -10 -18 0 -20 2 -8 10 19 12 18 12 25 0z m5 -46 c0 -14
-3 -14 -15 -4 -8 7 -15 14 -15 16 0 2 7 4 15 4 8 0 15 -7 15 -16z m-230 -169
c7 -9 8 -15 2 -15 -5 0 -12 7 -16 15 -3 8 -4 15 -2 15 2 0 9 -7 16 -15z m2670
-190 c11 -13 10 -14 -4 -9 -9 3 -16 10 -16 15 0 13 6 11 20 -6z m-1400 -1925
c0 -5 -2 -10 -4 -10 -3 0 -8 5 -11 10 -3 6 -1 10 4 10 6 0 11 -4 11 -10z
m-1054 -259 c-19 -7 -18 -8 5 -15 22 -7 20 -9 -21 -20 -34 -10 -40 -14 -25
-18 11 -3 3 -5 -17 -5 -21 0 -38 5 -38 10 0 5 -11 -2 -25 -17 -14 -16 -31 -29
-38 -30 -7 -1 -19 -6 -27 -11 -13 -8 -13 -6 -2 8 8 9 22 19 33 22 10 4 19 13
19 22 0 14 -3 14 -20 -2 -19 -18 -20 -17 -20 2 0 24 24 33 88 33 31 0 42 4 42
15 0 10 10 15 33 14 25 0 28 -2 13 -8z m-186 -61 c0 -11 -2 -20 -3 -20 -2 0
-12 9 -22 20 -18 19 -17 20 3 20 15 0 22 -6 22 -20z m120 -8 c0 -5 -10 -14
-23 -19 -19 -9 -24 -8 -24 3 0 8 6 13 13 10 8 -3 16 -1 19 4 8 12 15 13 15 2z
m-82 -63 c-7 -5 -14 -4 -16 1 -2 6 -9 7 -14 4 -6 -4 -8 -2 -5 4 4 5 16 8 28 5
16 -4 17 -8 7 -14z m385 -176 c-7 -2 -19 -2 -25 0 -7 3 -2 5 12 5 14 0 19 -2
13 -5z m1357 -1317 c0 -2 -8 -10 -17 -17 -16 -13 -17 -12 -4 4 13 16 21 21 21
13z"/>
</g>
</svg>
